<svg width="24" height="25" viewBox="0 0 24 25" fill="none" xmlns="http://www.w3.org/2000/svg">
<g id="Instagram svg" clip-path="url(#clip0_411_503)">
<path id="Vector" d="M7.0301 0.824648C5.7533 0.884888 4.88138 1.08865 4.11914 1.38817C3.33026 1.69561 2.66162 2.10817 1.99634 2.77585C1.33106 3.44353 0.921379 4.11265 0.616099 4.90273C0.320659 5.66665 0.120499 6.53929 0.0640995 7.81681C0.00769946 9.09433 -0.00478054 9.50497 0.00145946 12.7637C0.00769946 16.0224 0.0220995 16.4309 0.0840195 17.711C0.144979 18.9876 0.348019 19.8593 0.647539 20.6218C0.955459 21.4106 1.36754 22.079 2.03546 22.7446C2.70338 23.4101 3.37202 23.8188 4.16402 24.1246C4.92722 24.4195 5.8001 24.6206 7.07738 24.6766C8.35466 24.7325 8.76578 24.7454 12.0235 24.7392C15.2813 24.733 15.6915 24.7186 16.9714 24.6578C18.2513 24.5971 19.1184 24.3926 19.8811 24.0946C20.67 23.7859 21.3389 23.3746 22.0039 22.7064C22.669 22.0382 23.0784 21.3686 23.3835 20.5781C23.6791 19.8149 23.88 18.942 23.9355 17.6657C23.9914 16.3848 24.0046 15.9758 23.9983 12.7176C23.9921 9.45937 23.9775 9.05089 23.9167 7.77121C23.856 6.49153 23.6527 5.62249 23.3535 4.85953C23.0451 4.07065 22.6335 3.40273 21.9658 2.73673C21.2981 2.07073 20.628 1.66153 19.8377 1.35721C19.074 1.06177 18.2016 0.860408 16.9243 0.805208C15.6471 0.750008 15.2359 0.735848 11.977 0.742088C8.71802 0.748328 8.31002 0.762248 7.0301 0.824648ZM7.17026 22.5178C6.00026 22.4669 5.36498 22.2725 4.94162 22.1098C4.38098 21.8938 3.98162 21.6326 3.5597 21.2148C3.13778 20.797 2.87858 20.3962 2.6597 19.8367C2.4953 19.4134 2.2973 18.7788 2.24258 17.6088C2.18306 16.3442 2.17058 15.9646 2.16362 12.7608C2.15666 9.55705 2.1689 9.17785 2.22434 7.91281C2.27426 6.74377 2.46986 6.10777 2.63234 5.68465C2.84834 5.12329 3.1085 4.72465 3.5273 4.30297C3.9461 3.88129 4.3457 3.62161 4.90562 3.40273C5.3285 3.23761 5.96306 3.04129 7.13258 2.98561C8.3981 2.92561 8.7773 2.91361 11.9806 2.90665C15.1839 2.89969 15.564 2.91169 16.83 2.96737C17.9991 3.01825 18.6353 3.21193 19.0579 3.37537C19.6188 3.59137 20.0179 3.85081 20.4396 4.27033C20.8613 4.68985 21.1212 5.08801 21.3401 5.64913C21.5055 6.07081 21.7018 6.70513 21.757 7.87537C21.8172 9.14089 21.8309 9.52033 21.8367 12.7234C21.8424 15.9264 21.8311 16.3068 21.7757 17.5714C21.7246 18.7414 21.5307 19.3769 21.3677 19.8007C21.1517 20.3611 20.8913 20.7607 20.4723 21.1822C20.0532 21.6036 19.6541 21.8633 19.0939 22.0822C18.6715 22.247 18.0363 22.4438 16.8677 22.4995C15.6022 22.559 15.223 22.5715 12.0185 22.5785C8.81402 22.5854 8.43602 22.5725 7.1705 22.5178M16.9529 6.32713C16.9534 6.61195 17.0383 6.89024 17.1969 7.12679C17.3556 7.36335 17.5808 7.54754 17.8442 7.65607C18.1075 7.76461 18.3971 7.79262 18.6764 7.73655C18.9556 7.68048 19.212 7.54286 19.413 7.34109C19.614 7.13932 19.7507 6.88246 19.8058 6.60301C19.8608 6.32355 19.8317 6.03405 19.7222 5.77111C19.6127 5.50818 19.4277 5.28362 19.1906 5.12585C18.9534 4.96807 18.6748 4.88416 18.39 4.88473C18.0082 4.88549 17.6423 5.03787 17.3728 5.30836C17.1033 5.57885 16.9523 5.9453 16.9529 6.32713ZM5.8385 12.7526C5.84522 16.1558 8.60906 18.9084 12.0115 18.9019C15.414 18.8954 18.1685 16.1318 18.162 12.7286C18.1555 9.32545 15.391 6.57217 11.988 6.57889C8.58506 6.58561 5.83202 9.34993 5.8385 12.7526ZM7.99994 12.7483C7.99837 11.9572 8.23144 11.1834 8.66968 10.5247C9.10791 9.866 9.73162 9.35206 10.4619 9.04786C11.1923 8.74366 11.9964 8.66285 12.7726 8.81566C13.5489 8.96847 14.2624 9.34803 14.8229 9.90634C15.3834 10.4646 15.7658 11.1766 15.9217 11.9523C16.0776 12.7279 15.9999 13.5323 15.6986 14.2639C15.3973 14.9954 14.8859 15.6211 14.2289 16.062C13.572 16.5028 12.7991 16.7389 12.0079 16.7405C11.4826 16.7416 10.9622 16.6392 10.4765 16.4392C9.99076 16.2391 9.54918 15.9454 9.17699 15.5746C8.8048 15.2039 8.50929 14.7635 8.30733 14.2786C8.10537 13.7936 8.00091 13.2736 7.99994 12.7483Z" fill="#1B1919"/>
</g>
<defs>
<clipPath id="clip0_411_503">
<rect width="24" height="24" fill="white" transform="translate(0 0.740479)"/>
</clipPath>
</defs>
</svg>
