<svg width="24" height="28" viewBox="0 0 24 28" fill="none" xmlns="http://www.w3.org/2000/svg">
<g id="TikTok svg" clip-path="url(#clip0_411_510)">
<g id="Layer_1-2">
<path id="Vector" d="M20.4152 5.50832C18.9324 4.54327 17.8631 2.99852 17.529 1.19872C17.4572 0.809945 17.4172 0.409453 17.4172 0H12.6858L12.6782 18.9341C12.5988 21.0544 10.851 22.7564 8.70895 22.7564C8.0428 22.7564 7.416 22.5902 6.86375 22.3C5.59772 21.6348 4.73138 20.31 4.73138 18.7852C4.73138 16.5953 6.51583 14.8134 8.70826 14.8134C9.11761 14.8134 9.5104 14.8809 9.88178 14.9967V10.1736C9.49728 10.1212 9.10657 10.0888 8.70826 10.0888C3.90646 10.0888 0 13.9896 0 18.7852C0 21.7272 1.47174 24.3307 3.71801 25.9051C5.13245 26.8971 6.8534 27.4809 8.70895 27.4809C13.5107 27.4809 17.4172 23.5801 17.4172 18.7852V9.18374C19.2728 10.5134 21.5466 11.2972 24 11.2972V6.57262C22.6787 6.57262 21.4479 6.1804 20.4152 5.50832Z" fill="#1B1919"/>
</g>
</g>
<defs>
<clipPath id="clip0_411_510">
<rect width="24" height="27.4809" fill="white"/>
</clipPath>
</defs>
</svg>
