<svg width="24" height="18" viewBox="0 0 24 18" fill="none" xmlns="http://www.w3.org/2000/svg">
<g id="YouTube svg" clip-path="url(#clip0_411_505)">
<g id="g10">
<g id="g12">
<path id="path14" d="M23.4985 2.9463C23.2225 1.9105 22.4093 1.09486 21.3766 0.818039C19.505 0.314953 12 0.314953 12 0.314953C12 0.314953 4.49499 0.314953 2.62335 0.818039C1.59076 1.09486 0.777485 1.9105 0.501509 2.9463C0 4.8236 0 8.74048 0 8.74048C0 8.74048 0 12.6573 0.501509 14.5348C0.777485 15.5705 1.59076 16.3861 2.62335 16.663C4.49499 17.166 12 17.166 12 17.166C12 17.166 19.505 17.166 21.3766 16.663C22.4093 16.3861 23.2225 15.5705 23.4985 14.5348C24 12.6573 24 8.74048 24 8.74048C24 8.74048 24 4.8236 23.4985 2.9463Z" fill="#1B1919"/>
<path id="path16" d="M9.54541 12.2966L15.8181 8.74058L9.54541 5.18419V12.2966Z" fill="white"/>
</g>
</g>
</g>
<defs>
<clipPath id="clip0_411_505">
<rect width="24" height="16.8511" fill="white" transform="translate(0 0.314941)"/>
</clipPath>
</defs>
</svg>
