<svg width="165" height="40" viewBox="0 0 165 40" fill="none" xmlns="http://www.w3.org/2000/svg">
<g id="forbeslogo1 2" clip-path="url(#clip0_367_2427)">
<g id="Works">
<g id="global-medical">
<g id="Logo">
<path id="Shape" d="M100.752 11.3563C98.3619 11.3816 96.0134 11.9652 93.9068 13.0575C93.9068 7.12644 94.0018 1.97701 94.1445 0L81.5473 2.34483V3.44828L82.7833 3.58621C84.5421 3.81609 85.2076 4.82759 85.4453 7.08046C85.8256 11.4483 85.7781 34.7586 85.4453 38.4828C88.9671 39.2898 92.5696 39.7215 96.1885 39.7701C106.171 39.7701 112.208 33.7931 112.208 24.3218C112.161 16.7816 107.264 11.3563 100.752 11.3563ZM96.3787 37.8851C95.6618 37.8769 94.9466 37.8154 94.2395 37.7012C94.0494 35.0805 93.9068 24.2759 93.9543 14.8506C94.8995 14.5247 95.8984 14.3689 96.9016 14.3908C101.037 14.3908 103.366 19.0345 103.366 24.8276C103.319 32.2759 100.467 37.8851 96.3787 37.8851ZM34.2013 11.6322L32.2523 12.1379C30.4934 6.62069 27.7839 3.49425 22.6975 3.49425H16.1375C15.8523 7.03448 15.7097 12.9195 15.7572 19.0345L20.1781 18.8966C23.1253 18.8046 24.3137 16.6897 25.0268 13.6092H26.6905V26.5747H25.0268C24.3137 23.4483 23.0778 21.3333 20.1305 21.2414L15.7572 21.1034C15.8047 25.7471 15.9473 29.7012 16.1375 32.046C16.4227 35.4943 17.421 37.0115 19.9404 37.3793L22.1746 37.6092V39.1724H0.878357V37.6092L2.6372 37.3793C5.15662 37.0115 6.15488 35.4943 6.4401 32.046C6.91546 26.3448 7.01053 14.5287 6.4401 7.90805C6.15488 4.50575 5.15662 2.98851 2.6372 2.62069L0.878357 2.3908V0.873563H34.0111L34.2013 11.6322ZM44.8018 11.0345C54.214 11.0345 58.8726 17.1954 58.8726 25.3793C58.8726 33.5632 53.596 39.8161 44.1839 39.8161C34.7717 39.8161 30.0656 33.6552 30.0656 25.5172C30.0656 17.3793 35.3421 11.0345 44.8018 11.0345ZM44.3265 12.7816C40.1433 12.7816 39.0024 18.2069 39.0024 25.4253C39.0024 32.6437 40.8563 38.069 44.7068 38.069C48.5572 38.069 50.0308 32.6437 50.0308 25.4253C50.0308 18.2069 48.1294 12.8276 44.2789 12.8276L44.3265 12.7816ZM114.49 25.7011C114.49 18.1609 119.386 11.0805 129.131 11.0805C137.022 11.0805 140.778 16.7356 140.825 24.1379H123.189C122.999 30.8506 126.517 35.8161 133.267 35.8161C136.214 35.8161 137.83 35.1264 139.637 33.7931L140.445 34.7586C138.496 37.3793 134.408 39.8621 128.989 39.8621C120.48 39.8161 114.49 34.023 114.49 25.7011ZM123.284 22.2529L132.126 22.069C132.173 18.2988 131.555 12.8736 128.371 12.8736C125.186 12.8736 123.332 17.977 123.237 22.2069L123.284 22.2529ZM163.452 19.5402L162.026 19.908C160.505 15.0805 158.176 13.0575 154.753 13.0575C152.471 13.0575 150.855 14.7126 150.855 17.1034C150.855 19.4943 152.709 20.7356 158.033 22.7126C163.357 24.6897 164.878 26.6667 164.878 30.5287C164.878 36.2759 160.315 39.8161 152.804 39.8161C149.416 39.8029 146.056 39.2275 142.869 38.1149L142.631 30.1609L144.057 29.7931C146.102 35.3563 148.811 37.3793 152.376 37.3793C155.942 37.3793 157.082 35.3103 157.082 33.1035C157.082 30.8966 155.799 29.6552 150.998 28C146.197 26.3448 143.297 24.5517 143.297 19.7241C143.297 14.8966 147.575 11.0345 154.658 11.0345C157.938 11.0345 161.075 11.5862 163.167 12.5057L163.452 19.5402ZM80.3589 19.3103C76.5561 16.8276 72.4204 17.931 71.6123 19.2644C71.3369 24.1659 71.3687 29.0791 71.7074 33.977C71.8975 36.2299 72.6105 37.2414 74.3694 37.4713L76.6511 37.6092V39.1724H59.1102V37.6092L60.3462 37.4713C62.105 37.2414 62.7705 36.2299 63.0082 33.977C63.3766 28.6957 63.3766 23.3963 63.0082 18.1149C62.8181 15.8621 62.105 14.8506 60.3462 14.6207L59.1102 14.4828V13.3793L71.7074 11.0345L71.5647 17.3793C74.512 10.8506 80.3114 9.97701 83.4488 11.8161L80.3589 19.3103Z" fill="black"/>
<path id="KAZAKHSTAN" fill-rule="evenodd" clip-rule="evenodd" d="M127.751 4.63438H127.049L125.37 2.45313L124.888 2.8625V4.63438H124.293V0.065625H124.888V2.31875L125.296 1.88438L126.981 0.065625H127.677L125.803 2.05625L127.751 4.63438ZM131.362 4.63438L130.793 3.21875H128.916L128.353 4.63438H127.751L129.599 0.046875H130.136L131.98 4.63438H131.362ZM130.615 2.70938L130.084 1.325L129.858 0.640625C129.793 0.890626 129.725 1.11875 129.654 1.325L129.117 2.70938H130.615ZM135.52 4.63438H132.239V4.2L134.73 0.578125H132.316V0.065625H135.452V0.5L132.96 4.12188H135.52V4.63438ZM139.386 4.63438L138.817 3.21875H136.94L136.377 4.63438H135.775L137.623 0.046875H138.16L140.004 4.63438H139.386ZM138.639 2.70938L138.108 1.325L137.882 0.640625C137.817 0.890626 137.749 1.11875 137.678 1.325L137.141 2.70938H138.639ZM144.113 4.63438H143.411L141.732 2.45313L141.25 2.8625V4.63438H140.654V0.065625H141.25V2.31875L141.657 1.88438L143.343 0.065625H144.039L142.165 2.05625L144.113 4.63438ZM148.374 4.63438H147.779V2.50313H145.352V4.63438H144.757V0.065625H145.352V1.99688H147.779V0.065625H148.374V4.63438ZM152.351 3.4125C152.351 3.81042 152.202 4.12396 151.904 4.35313C151.606 4.58229 151.192 4.69688 150.662 4.69688C150.101 4.69688 149.667 4.625 149.361 4.48125V3.93125C149.562 4.01458 149.781 4.08021 150.019 4.12813C150.258 4.17604 150.48 4.2 150.688 4.2C151.041 4.2 151.308 4.13438 151.487 4.00313C151.666 3.87188 151.755 3.69167 151.755 3.4625C151.755 3.31042 151.723 3.18542 151.658 3.0875C151.593 2.98958 151.485 2.89792 151.333 2.8125C151.181 2.72708 150.951 2.63021 150.642 2.52188C150.204 2.36771 149.892 2.18594 149.704 1.97656C149.516 1.76719 149.422 1.49688 149.422 1.16563C149.422 0.809373 149.561 0.526043 149.838 0.315625C150.115 0.105207 150.48 0 150.933 0C151.406 0 151.84 0.0854158 152.237 0.25625L152.053 0.75C151.647 0.587499 151.27 0.50625 150.921 0.50625C150.64 0.50625 150.421 0.564583 150.262 0.68125C150.104 0.797917 150.024 0.961457 150.024 1.17188C150.024 1.32188 150.055 1.44635 150.117 1.54531C150.178 1.64427 150.277 1.73437 150.414 1.81563C150.551 1.89688 150.766 1.98958 151.06 2.09375C151.411 2.21875 151.673 2.3401 151.846 2.45781C152.018 2.57552 152.146 2.71094 152.228 2.86406C152.31 3.01719 152.351 3.2 152.351 3.4125ZM154.803 4.63438H154.205V0.571875H152.726V0.065625H156.272V0.571875H154.803V4.63438ZM159.731 4.63438L159.161 3.21875H157.285L156.722 4.63438H156.12L157.967 0.046875H158.504L160.349 4.63438H159.731ZM158.983 2.70938L158.453 1.325L158.226 0.640625C158.162 0.890626 158.094 1.11875 158.022 1.325L157.485 2.70938H158.983ZM164.749 4.63438H164.053L161.52 0.840625H161.494L161.51 1.09375C161.536 1.47292 161.549 1.80208 161.549 2.08125V4.63438H160.999V0.065625H161.688L161.834 0.2875L163.387 2.60625L164.212 3.84688H164.238C164.233 3.79688 164.225 3.61823 164.212 3.31094C164.199 3.00364 164.192 2.78125 164.192 2.64375V0.065625H164.749V4.63438Z" fill="black"/>
</g>
</g>
</g>
</g>
<defs>
<clipPath id="clip0_367_2427">
<rect width="164" height="40" fill="white" transform="translate(0.878357)"/>
</clipPath>
</defs>
</svg>
